PathFileType	4	(X/Y/Z)	Walk6.trc
DataRate	CameraRate	NumFrames	NumMarkers	Units	OrigDataRate	OrigDataStartFrame	OrigNumFrames
200.000000	200.000000	8	59	mm	200.000000	343	500
Frame#	Times		LFHD		LBHD		C7		T10		RBack		LPSI		RPSI		RElbowM		RCAR		LUA1		LElbowM		LLFC		LCAR		RUA1		RFA1		RWRR		CLAV		LACR1		RTH3		RTB1		LWRU		RBHD		RACR1		RTB4		LFA1		LWRR		RTH2		RTB3		RToe		RElbow		RMT1		STRN		RWRU		RFHD		RTH4		RLFC		RCAL		RMT5		RTH1		RTB2		LTH3		LTH4		RMMAL		LTH1		LElbow		LTH2		LTB3		RLMAL		LTB2		RASI		LCAL		LMT1		LASI		LLMAL		LMT5		LToe		LTB1		LMMAL		LTB4
			X1	Y1	Z1	X2	Y2	Z2	X3	Y3	Z3	X4	Y4	Z4	X5	Y5	Z5	X6	Y6	Z6	X7	Y7	Z7	X8	Y8	Z8	X9	Y9	Z9	X10	Y10	Z10	X11	Y11	Z11	X12	Y12	Z12	X13	Y13	Z13	X14	Y14	Z14	X15	Y15	Z15	X16	Y16	Z16	X17	Y17	Z17	X18	Y18	Z18	X19	Y19	Z19	X20	Y20	Z20	X21	Y21	Z21	X22	Y22	Z22	X23	Y23	Z23	X24	Y24	Z24	X25	Y25	Z25	X26	Y26	Z26	X27	Y27	Z27	X28	Y28	Z28	X29	Y29	Z29	X30	Y30	Z30	X31	Y31	Z31	X32	Y32	Z32	X33	Y33	Z33	X34	Y34	Z34	X35	Y35	Z35	X36	Y36	Z36	X37	Y37	Z37	X38	Y38	Z38	X39	Y39	Z39	X40	Y40	Z40	X41	Y41	Z41	X42	Y42	Z42	X43	Y43	Z43	X44	Y44	Z44	X45	Y45	Z45	X46	Y46	Z46	X47	Y47	Z47	X48	Y48	Z48	X49	Y49	Z49	X50	Y50	Z50	X51	Y51	Z51	X52	Y52	Z52	X53	Y53	Z53	X54	Y54	Z54	X55	Y55	Z55	X56	Y56	Z56	X57	Y57	Z57	X58	Y58	Z58	X59	Y59	Z59

343	1.715	316.22	1495.3	-16.395	143.47	1501.6	-35.572	110.65	1365.6	33.016	87.57	1092.9	28.505	89.688	1260.9	161.13	64.121	902.52	-9.9226	67.792	909.16	89.949	139.22	967.76	228.77	290.85	761.48	335.9	181.46	1135.4	-220.18	118.88	985.32	-175.42	300.72	469.51	-146.77	270.54	743.97	-281.51	201.45	1150.5	265.26	201.13	882.68	314.24	310.56	803.87	290.79	236.59	1288.4	33.36	183.88	1304.8	-133.3	222.14	554.82	173.53	246.47	332.35	65.024	219.25	781.55	-297.01	144.39	1506.5	87.787	187.11	1304.7	183.51	234.52	240.66	63.917	179	899.85	-273.26	253.94	780.12	-234.67	288.12	659.71	158.35	237.35	147.14	57.503	353.54	23.978	30.141	183.61	1009.3	305.85	295.19	43.359	30.336	301.87	1185.7	26.329	240.38	776.91	300.95	323.73	1502.4	59.902	223.74	647.48	199.06	232.73	455.73	153.8	144.29	40.202	84.148	280.72	32.307	88.851	229.46	732.85	226.26	219.07	238.56	134.5	304.29	581.48	-150.78	276.06	671.82	-160.57	199.19	72.369	23.223	242.04	758.81	-173.07	148.01	1019.6	-240.71	336.49	699.78	-129.67	169.81	213.92	-44.578	205.32	63.54	102.43	185.82	307.34	-115.31	296.81	879.5	165.68	18.924	167.74	-9.0506	145.29	90.032	-50.398	258.79	882.4	-136.52	60.776	172.74	-64.618	101.03	93.848	-92.234	166.81	47.866	-79.743	288.61	348.58	-73.637	99.103	156.66	4.0903	221.28	287.58	-56.389
344	1.72	321.84	1495.1	-16.396	149.08	1501.5	-35.554	116.2	1365.5	33.11	92.722	1092.9	28.574	95.234	1260.8	161.31	69.375	902.18	-10.143	72.873	909.05	89.795	146.41	967.26	229.18	300.03	762.35	335.68	185.99	1135.4	-220.16	123.42	985.37	-175.17	310.89	470.43	-146.2	273.89	743.6	-281.9	207.54	1150.4	265.3	209.16	882.74	314.38	319.22	804.98	290.59	242.04	1288.2	33.283	189.07	1304.7	-133.29	224.82	554.8	173.56	247.42	332.29	65.106	222.68	781.36	-297.25	150.03	1506.2	87.821	192.75	1304.6	183.49	235.15	240.63	63.983	182.9	899.78	-273.33	257.55	779.75	-235.04	291.69	659.05	158.16	237.63	147.08	57.48	353.64	23.96	30.185	190.5	1009.2	306.15	295.22	43.243	30.216	307.22	1185.5	26.081	249.33	777.43	300.83	329.31	1502.1	59.901	227.43	647.42	199.11	234.19	455.65	153.93	144.31	40.341	84.048	280.74	32.316	88.752	234.04	732.68	226.41	219.74	238.55	134.53	313.19	582.51	-150.35	283.99	672.45	-160.26	199.23	72.412	23.158	249.04	759.08	-172.95	152.31	1019.6	-240.59	343.9	701.14	-129.04	184.81	211.9	-44.486	205.43	63.609	102.34	199.15	305.63	-115.3	301.86	879.44	165.56	34.764	161.83	-9.8883	163.88	88.162	-50.234	264.32	882.38	-136.46	76.978	167.98	-65.197	119.85	90.435	-92.447	187.08	46.799	-79.333	300.63	349.25	-72.94	115.15	153.08	3.8186	234.72	286.74	-56.127
345	1.725	327.47	1494.8	-16.412	154.69	1501.3	-35.555	121.75	1365.3	33.191	97.86	1092.7	28.611	100.77	1260.6	161.48	74.614	901.75	-10.388	77.94	908.86	89.614	153.61	966.69	229.55	309.18	763.19	335.43	190.56	1135.2	-220.14	128	985.36	-174.92	320.91	471.3	-145.59	277.23	743.16	-282.31	213.62	1150.3	265.33	217.16	882.75	314.49	327.85	806.04	290.38	247.48	1287.9	33.203	194.28	1304.5	-133.3	227.52	554.75	173.58	248.37	332.23	65.17	226.12	781.12	-297.52	155.67	1506	87.836	198.38	1304.4	183.46	235.84	240.62	64.063	186.79	899.65	-273.4	261.15	779.31	-235.42	295.29	658.36	157.99	237.93	147.02	57.462	353.74	23.939	30.246	197.36	1009.1	306.43	295.24	43.131	30.096	312.54	1185.1	25.844	258.26	777.91	300.69	334.89	1501.8	59.889	231.13	647.32	199.16	235.71	455.56	154.04	144.32	40.483	83.947	280.76	32.327	88.647	238.6	732.49	226.55	220.44	238.55	134.55	321.97	583.49	-149.88	291.82	673.02	-159.94	199.28	72.461	23.09	255.99	759.29	-172.85	156.63	1019.5	-240.48	351.23	702.44	-128.41	199.93	209.83	-44.351	205.54	63.677	102.24	212.55	303.82	-115.27	306.74	879.35	165.48	50.907	155.76	-10.727	182.65	86.252	-50.042	269.84	882.29	-136.4	93.434	163.1	-65.784	138.91	86.963	-92.634	207.52	45.743	-78.855	312.59	349.91	-72.172	131.4	149.39	3.5456	248.19	285.85	-55.827
346	1.73	333.11	1494.4	-16.443	160.32	1501	-35.575	127.29	1365.1	33.258	102.99	1092.5	28.617	106.3	1260.4	161.63	79.841	901.24	-10.656	82.997	908.61	89.407	160.82	966.07	229.9	318.3	763.99	335.14	195.2	1135	-220.13	132.6	985.28	-174.67	330.78	472.14	-144.95	280.57	742.66	-282.72	219.67	1150.1	265.36	225.13	882.71	314.57	336.46	807.07	290.14	252.91	1287.6	33.119	199.5	1304.2	-133.31	230.23	554.69	173.6	249.34	332.17	65.212	229.55	780.82	-297.79	161.33	1505.7	87.832	203.99	1304.1	183.42	236.57	240.6	64.155	190.7	899.45	-273.49	264.75	778.82	-235.8	298.91	657.64	157.85	238.24	146.97	57.447	353.85	23.916	30.318	204.17	1008.9	306.68	295.27	43.023	29.975	317.85	1184.7	25.619	267.18	778.38	300.54	340.47	1501.4	59.867	234.83	647.19	199.21	237.3	455.45	154.14	144.34	40.629	83.845	280.78	32.34	88.537	243.15	732.26	226.69	221.18	238.55	134.56	330.64	584.41	-149.4	299.56	673.52	-159.61	199.33	72.516	23.016	262.87	759.43	-172.76	160.97	1019.4	-240.38	358.47	703.66	-127.79	215.17	207.71	-44.182	205.64	63.743	102.13	226.01	301.93	-115.23	311.39	879.22	165.43	67.354	149.55	-11.562	201.61	84.324	-49.839	275.33	882.12	-136.34	110.14	158.12	-66.378	158.21	83.466	-92.804	228.1	44.721	-78.332	324.48	350.56	-71.348	147.87	145.61	3.2701	261.68	284.93	-55.495
347	1.735	338.76	1494	-16.487	165.96	1500.7	-35.612	132.82	1364.9	33.312	108.1	1092.3	28.594	111.82	1260.2	161.78	85.057	900.64	-10.946	88.046	908.28	89.172	168.02	965.38	230.23	327.38	764.75	334.83	199.89	1134.8	-220.13	137.23	985.13	-174.45	340.5	472.92	-144.28	283.9	742.08	-283.15	225.7	1149.9	265.38	233.07	882.61	314.62	345.04	808.06	289.87	258.33	1287.2	33.031	204.73	1303.9	-133.34	232.95	554.61	173.62	250.32	332.1	65.231	232.99	780.46	-298.09	167	1505.3	87.809	209.59	1303.7	183.38	237.36	240.57	64.253	194.61	899.18	-273.59	268.33	778.26	-236.19	302.56	656.89	157.75	238.58	146.91	57.432	353.95	23.891	30.399	210.94	1008.6	306.91	295.3	42.917	29.852	323.13	1184.2	25.405	276.07	778.81	300.39	346.05	1500.9	59.834	238.54	647.03	199.26	238.96	455.32	154.22	144.36	40.778	83.743	280.81	32.353	88.42	247.68	732	226.82	221.97	238.55	134.56	339.18	585.28	-148.89	307.2	673.97	-159.29	199.39	72.578	22.932	269.68	759.51	-172.69	165.34	1019.2	-240.3	365.61	704.8	-127.17	230.52	205.57	-43.987	205.75	63.805	102.01	239.54	299.98	-115.17	315.77	879.07	165.4	84.106	143.25	-12.389	220.73	82.399	-49.637	280.8	881.88	-136.29	127.1	153.06	-66.976	177.73	79.976	-92.967	248.8	43.754	-77.788	336.29	351.22	-70.485	164.56	141.76	2.9896	275.2	283.98	-55.138
348	1.74	344.42	1493.5	-16.545	171.61	1500.3	-35.667	138.36	1364.6	33.352	113.19	1092	28.541	117.33	1259.9	161.91	90.263	899.97	-11.256	93.09	907.89	88.91	175.21	964.65	230.52	336.44	765.48	334.48	204.64	1134.4	-220.15	141.88	984.92	-174.24	350.05	473.64	-143.59	287.22	741.43	-283.6	231.72	1149.6	265.39	240.98	882.47	314.64	353.59	809	289.57	263.74	1286.7	32.938	209.98	1303.5	-133.38	235.69	554.5	173.64	251.33	332.01	65.224	236.43	780.03	-298.39	172.67	1504.9	87.767	215.17	1303.3	183.34	238.2	240.54	64.349	198.52	898.85	-273.69	271.92	777.63	-236.57	306.23	656.13	157.69	238.94	146.84	57.414	354.06	23.866	30.485	217.68	1008.3	307.12	295.32	42.814	29.73	328.41	1183.7	25.203	284.94	779.22	300.23	351.64	1500.3	59.79	242.24	646.84	199.32	240.7	455.17	154.29	144.4	40.931	83.64	280.84	32.368	88.297	252.18	731.72	226.94	222.81	238.54	134.56	347.58	586.09	-148.37	314.74	674.34	-158.96	199.46	72.646	22.833	276.42	759.53	-172.64	169.73	1018.9	-240.24	372.66	705.86	-126.57	245.98	203.42	-43.777	205.87	63.862	101.88	253.11	297.97	-115.09	319.82	878.91	165.39	101.16	136.86	-13.206	240	80.499	-49.449	286.26	881.57	-136.24	144.29	147.96	-67.578	197.46	76.523	-93.13	269.62	42.865	-77.245	348.01	351.86	-69.596	181.47	137.87	2.6996	288.72	283.01	-54.761
349	1.745	350.1	1492.9	-16.615	177.27	1499.9	-35.74	143.89	1364.2	33.377	118.27	1091.7	28.46	122.84	1259.5	162.03	95.462	899.22	-11.584	98.13	907.44	88.619	182.4	963.87	230.79	345.46	766.17	334.09	209.45	1134	-220.18	146.55	984.65	-174.05	359.43	474.31	-142.88	290.54	740.72	-284.05	237.73	1149.2	265.39	248.86	882.28	314.64	362.11	809.9	289.24	269.15	1286.2	32.84	215.23	1303	-133.43	238.44	554.38	173.66	252.37	331.91	65.191	239.87	779.54	-298.71	178.35	1504.4	87.706	220.74	1302.9	183.28	239.09	240.48	64.432	202.45	898.45	-273.81	275.49	776.95	-236.96	309.93	655.34	157.69	239.33	146.77	57.388	354.17	23.841	30.575	224.38	1007.9	307.31	295.35	42.714	29.607	333.67	1183.1	25.01	293.77	779.59	300.07	357.23	1499.7	59.735	245.93	646.63	199.38	242.54	455	154.33	144.44	41.087	83.537	280.87	32.384	88.17	256.66	731.41	227.06	223.7	238.52	134.55	355.85	586.83	-147.82	322.17	674.65	-158.63	199.55	72.718	22.713	283.09	759.48	-172.61	174.15	1018.6	-240.19	379.61	706.84	-125.99	261.54	201.28	-43.562	205.99	63.912	101.74	266.71	295.94	-115	323.48	878.73	165.4	118.52	130.43	-14.013	259.4	78.645	-49.286	291.69	881.18	-136.21	161.71	142.85	-68.183	217.38	73.136	-93.298	290.52	42.075	-76.724	359.63	352.51	-68.694	198.6	133.95	2.3945	302.23	282.03	-54.373
350	1.75	355.78	1492.3	-16.699	182.94	1499.4	-35.83	149.41	1363.8	33.386	123.34	1091.3	28.353	128.33	1259.1	162.13	100.65	898.4	-11.929	103.17	906.94	88.299	189.56	963.04	231.04	354.45	766.81	333.67	214.31	1133.5	-220.23	151.23	984.31	-173.89	368.64	474.91	-142.16	293.87	739.93	-284.51	243.72	1148.8	265.38	256.72	882.04	314.61	370.6	810.76	288.87	274.54	1285.6	32.737	220.5	1302.5	-133.48	241.22	554.23	173.68	253.46	331.79	65.134	243.33	778.98	-299.04	184.04	1503.9	87.626	226.3	1302.4	183.22	240.01	240.41	64.494	206.39	897.98	-273.94	279.07	776.19	-237.36	313.66	654.53	157.74	239.75	146.69	57.351	354.28	23.816	30.666	231.05	1007.5	307.47	295.38	42.617	29.486	338.91	1182.4	24.827	302.58	779.92	299.89	362.83	1499.1	59.669	249.61	646.39	199.44	244.47	454.81	154.36	144.48	41.246	83.433	280.91	32.4	88.04	261.11	731.07	227.17	224.64	238.48	134.53	363.97	587.49	-147.25	329.5	674.88	-158.3	199.66	72.792	22.569	289.68	759.37	-172.6	178.6	1018.2	-240.16	386.46	707.72	-125.43	277.19	199.17	-43.349	206.12	63.956	101.59	280.34	293.9	-114.9	326.7	878.56	165.41	136.16	123.99	-14.811	278.94	76.859	-49.155	297.11	880.73	-136.19	179.36	137.75	-68.791	237.46	69.841	-93.476	311.5	41.403	-76.245	371.15	353.14	-67.788	215.96	130.05	2.0682	315.72	281.06	-53.982
